<?xml version="1.0" encoding="utf-8"?>
<!-- Generator: Adobe Illustrator 26.0.2, SVG Export Plug-In . SVG Version: 6.00 Build 0)  -->
<svg version="1.1" id="Layer_1" xmlns="http://www.w3.org/2000/svg" xmlns:xlink="http://www.w3.org/1999/xlink" x="0px" y="0px"
	 viewBox="0 0 949.68 1375.51" style="enable-background:new 0 0 949.68 1375.51;" xml:space="preserve">
<style type="text/css">
	.st0{fill:none;stroke:#231F20;stroke-linecap:round;stroke-linejoin:round;stroke-miterlimit:10;}
	.st1{fill:#00501E;}
</style>
<path class="st1" d="M472.87,297.04c-2.94,0-72.72-0.61-126.08-53.98c-1.13-1.13-2.25-2.28-3.32-3.41
	c-11.16-11.8-16.47-25.82-15.35-40.55c0.99-12.99,6.97-25.59,16.85-35.47c9.88-9.88,22.47-15.86,35.47-16.85
	c13.61-1.04,26.62,3.42,37.83,12.92c1.21-14.64,7.26-26.99,17.61-35.88c9.89-8.49,23.03-13.16,36.99-13.16s27.11,4.67,36.99,13.16
	c10.36,8.89,16.4,21.24,17.62,35.88c11.21-9.5,24.22-13.96,37.83-12.92c12.99,0.99,25.59,6.97,35.47,16.85s15.86,22.47,16.85,35.47
	c1.12,14.73-4.19,28.75-15.35,40.55c-1.08,1.14-2.19,2.28-3.31,3.41C545.59,296.43,475.82,297.04,472.87,297.04z M384.29,157.72
	c-12.1,0-23.46,5.62-31.54,13.7c-14.53,14.53-21.12,39.71-1.28,60.68c1.01,1.07,2.05,2.13,3.1,3.19
	c50.18,50.18,117.63,50.76,118.31,50.76c0.67,0,68.25-0.71,118.31-50.76c1.06-1.06,2.09-2.12,3.1-3.19
	c19.84-20.97,13.24-46.15-1.29-60.68s-39.71-21.12-60.67-1.29c-1.07,1.01-2.13,2.05-3.19,3.1c-0.83,0.83-1.62,1.67-2.41,2.51
	l-10.45,11.03l0.41-15.23c0.03-1.14,0.07-2.28,0.07-3.44c0-1.49-0.02-2.97-0.06-4.45c-0.8-28.85-23.27-42-43.81-42
	s-43.02,13.14-43.81,42c-0.04,1.47-0.06,2.95-0.06,4.45c0,1.14,0.03,2.26,0.06,3.39l0.4,15.28l-10.41-11
	c-0.8-0.85-1.6-1.7-2.44-2.54c-1.06-1.06-2.12-2.09-3.19-3.1C404.11,161.32,393.96,157.72,384.29,157.72z"/>
<path class="st1" d="M465.82,238.78h-8c0-11.91-11.59-21.61-25.84-21.61c-14.25,0-25.84,9.69-25.84,21.61h-8
	c0-16.33,15.18-29.61,33.84-29.61C450.64,209.17,465.82,222.45,465.82,238.78z"/>
<circle class="st1" cx="441.18" cy="227.43" r="11.51"/>
<path class="st1" d="M547.88,238.78h-8c0-11.91-11.59-21.61-25.84-21.61s-25.84,9.69-25.84,21.61h-8
	c0-16.33,15.18-29.61,33.84-29.61S547.88,222.45,547.88,238.78z"/>
<circle class="st1" cx="523.25" cy="227.43" r="11.51"/>
<path class="st1" d="M472.84,268.18c-9.43,0-18.17-4.85-22.25-12.34l7.03-3.83c2.71,4.96,8.68,8.17,15.23,8.17
	c6.55,0,12.52-3.21,15.23-8.17l7.03,3.83C491.01,263.34,482.27,268.18,472.84,268.18z"/>
<path class="st1" d="M615.84,378.01c-19.67,9.04-42.14,11.4-63.4,6.62c-20.62-4.64-38.7-15.38-52.59-31.15
	c1.36,0.94,2.76,1.85,4.2,2.72c11.88,7.16,25.08,10.76,38.28,10.76c11.74,0,23.47-2.84,34.29-8.56c0.77-0.4,1.53-0.82,2.29-1.25
	l-5.44-9.56c-0.66,0.38-1.32,0.74-1.99,1.09c-19.55,10.33-42.63,9.63-61.75-1.89c-19.57-11.79-31.26-32.42-31.26-55.18h-11.1
	c0,22.76-11.69,43.39-31.26,55.18c-19.12,11.52-42.2,12.23-61.75,1.89c-0.67-0.35-1.33-0.71-1.99-1.09l-5.44,9.56
	c0.76,0.43,1.52,0.85,2.29,1.25c10.82,5.72,22.55,8.56,34.29,8.56c13.2,0,26.39-3.6,38.28-10.76c1.44-0.86,2.84-1.77,4.2-2.72
	c-13.89,15.77-31.97,26.51-52.59,31.15c-21.26,4.79-43.73,2.43-63.4-6.62l-5.53,9.58c14.7,6.92,30.84,10.46,47.05,10.46
	c8.14,0,16.29-0.89,24.29-2.69c24.66-5.55,46.07-18.95,61.89-38.73c3.7-4.62,6.92-9.58,9.66-14.77v56.19h11v-56.38
	c2.77,5.26,6.02,10.29,9.76,14.96c15.83,19.78,37.23,33.17,61.89,38.73c8,1.8,16.15,2.69,24.29,2.69c16.21,0,32.35-3.54,47.05-10.46
	L615.84,378.01z"/>
<path class="st1" d="M187.02,920.19c-10.25,0-19.04-2.86-26.28-8.57c-13.59-10.73-21.08-31.79-21.08-59.32h11
	c0,13.95,2.19,39.08,16.89,50.68c7.96,6.28,18.99,7.79,32.79,4.49l2.56,10.7C197.28,919.52,191.98,920.19,187.02,920.19z"/>
<path class="st1" d="M351.37,612.78h-11c0-5.47,3.62-30.73,21.32-54.42c16.29-21.79,48.89-47.77,111.72-47.77v11
	c-46.79,0-81.41,14.59-102.91,43.35C352.8,588.64,351.37,612.55,351.37,612.78z"/>
<path class="st1" d="M397.62,1204.78h-11c0-36.82,14.45-73.32,41.79-105.55c20.54-24.21,40.85-37.4,41.71-37.95l5.95,9.25
	l-2.97-4.63l2.98,4.62c-0.2,0.13-20,13.02-39.49,36.07C418.81,1127.63,397.62,1161.73,397.62,1204.78z"/>
<path class="st1" d="M558.91,1204.78h-11c0-82.85-77.67-133.74-78.45-134.24l5.95-9.25c0.86,0.55,21.17,13.74,41.71,37.95
	C544.46,1131.47,558.91,1167.96,558.91,1204.78z"/>
<path class="st1" d="M207.13,580.49c-25.07,0-37.02-13.37-42.63-24.59c-5.9-11.8-5.97-23.51-5.97-24.01h11
	c0.01,1.52,0.63,37.6,37.6,37.6c56.65,0,69.44-47.3,69.95-49.31l10.67,2.69c-0.15,0.6-3.79,14.74-15.54,28.9
	C261.33,564.88,241.22,580.49,207.13,580.49z"/>
<path class="st1" d="M738.54,580.49c-34.09,0-54.2-15.62-65.07-28.72c-11.75-14.16-15.4-28.31-15.54-28.9l10.67-2.69
	c0.52,2.01,13.3,49.31,69.95,49.31c36.96,0,37.59-36.08,37.6-37.61l11,0.01C787.14,532.38,786.58,580.49,738.54,580.49z"/>
<path class="st1" d="M759.48,920.92c-4.94,0-10.17-0.66-15.69-1.98l2.56-10.7c14,3.35,25.46,1.61,34.06-5.18
	c19.15-15.11,19.37-50.2,19.37-50.55h11c0,1.66-0.27,40.82-23.55,59.19C779.45,917.84,770.15,920.92,759.48,920.92z"/>
<path class="st1" d="M605.58,612.78h-11c0-0.22-1.43-24.14-19.13-47.83c-21.5-28.77-56.12-43.35-102.91-43.35v-11
	c34.68,0,82.21,8.29,111.72,47.77C601.96,582.05,605.58,607.31,605.58,612.78z"/>
<path class="st1" d="M72.75,712.05h-11c0-81.37,56.45-83.03,101.8-84.37c19.27-0.57,37.47-1.1,49.54-7.23
	c31.89-16.19,46.88-55.38,61.38-93.29c19.69-51.5,40.05-104.75,102.8-104.75c37.66,0,62.95,15.74,77.54,28.94
	c15.83,14.33,22.72,28.63,23,29.24l-9.94,4.71l4.97-2.35l-4.97,2.36c-0.06-0.13-6.43-13.24-20.79-26.11
	c-19.08-17.11-42.57-25.78-69.82-25.78c-55.17,0-73.32,47.45-92.52,97.68c-15.24,39.85-30.99,81.06-66.67,99.17
	c-14.26,7.24-33.66,7.81-54.2,8.42c-22.41,0.66-45.58,1.34-62.85,10.76C81.74,659.96,72.75,679.85,72.75,712.05z"/>
<path class="st1" d="M883.93,712.05h-11c0-32.2-8.99-52.09-28.28-62.61c-17.27-9.42-40.44-10.1-62.85-10.76
	c-20.54-0.6-39.93-1.17-54.2-8.42c-35.68-18.11-51.43-59.31-66.67-99.17c-19.21-50.23-37.35-97.68-92.52-97.68
	c-27.25,0-50.74,8.67-69.82,25.78c-14.36,12.87-20.73,25.98-20.79,26.11l-9.94-4.72c0.29-0.6,7.17-14.91,23-29.24
	c14.59-13.2,39.88-28.94,77.54-28.94c62.75,0,83.11,53.25,102.8,104.75c14.49,37.9,29.48,77.1,61.38,93.29
	c12.07,6.13,30.27,6.66,49.54,7.23C827.48,629.02,883.93,630.68,883.93,712.05z"/>
<path class="st1" d="M304.72,1204.78h-11c0-44.51,75.11-86.38,162.07-134.88c55.25-30.81,117.87-65.72,164.83-104.11
	c52.8-43.17,78.47-84.63,78.47-126.75c0-34.12-18.17-69.15-55.55-107.07c-33.68-34.17-78.4-66.45-121.66-97.67
	c-18.32-13.22-35.62-25.71-52.25-38.41l6.68-8.74c16.51,12.61,33.75,25.05,52.01,38.23c43.62,31.48,88.73,64.04,123.05,98.87
	c39.51,40.09,58.72,77.64,58.72,114.79c0,45.63-26.99,89.88-82.51,135.27c-47.72,39.01-110.79,74.18-166.43,105.2
	C380.71,1124.37,304.72,1166.74,304.72,1204.78z"/>
<path class="st1" d="M652.72,1204.78h-11c0-38.04-75.98-80.41-156.43-125.27c-55.65-31.03-118.72-66.2-166.43-105.2
	c-55.52-45.39-82.51-89.63-82.51-135.27c0-37.16,19.21-74.71,58.72-114.79c34.33-34.83,79.43-67.38,123.05-98.87
	c18.26-13.18,35.5-25.62,52.01-38.23l6.68,8.74c-16.63,12.7-33.93,25.19-52.25,38.41c-43.25,31.22-87.98,63.5-121.66,97.67
	c-37.38,37.92-55.55,72.95-55.55,107.07c0,42.13,25.67,83.59,78.47,126.75c46.96,38.39,109.58,73.31,164.83,104.11
	C577.61,1118.4,652.72,1160.28,652.72,1204.78z"/>
<path class="st1" d="M114.03,929.37v-11c94.41,0,183.17-36.76,249.92-103.52c66.76-66.76,103.52-155.51,103.52-249.92V381.49h11
	v183.42c0,49.2-9.64,96.93-28.64,141.86c-18.36,43.4-44.63,82.37-78.1,115.84c-33.47,33.47-72.44,59.75-115.84,78.1
	C210.96,919.73,163.23,929.37,114.03,929.37z"/>
<path class="st1" d="M831.92,929.57c-49.2,0-96.93-9.64-141.86-28.64c-43.4-18.36-82.37-44.63-115.84-78.1
	c-33.47-33.47-59.75-72.44-78.1-115.84c-19.01-44.93-28.64-92.66-28.64-141.86h11c0,94.41,36.76,183.17,103.52,249.92
	c66.76,66.76,155.52,103.52,249.92,103.52V929.57z"/>
<path class="st1" d="M210.83,1042.17c-28.61,0-51.02-8.25-66.61-24.52c-23.92-24.97-22.74-59.48-22.68-60.94l10.99,0.47
	c-0.01,0.3-0.98,31.42,19.7,52.93c13.43,13.97,33.15,21.05,58.59,21.05c40.24,0,78.23-27.43,118.46-56.47
	c44.37-32.03,90.25-65.15,144.24-65.15v11c-50.43,0-94.85,32.06-137.8,63.07C294.02,1013.73,254.63,1042.17,210.83,1042.17z"/>
<path class="st1" d="M735.61,1042.17c-43.79,0-83.19-28.44-124.9-58.55c-42.95-31.01-87.37-63.07-137.8-63.07v-11
	c53.99,0,99.87,33.12,144.24,65.15c40.23,29.04,78.22,56.47,118.46,56.47c25.45,0,45.16-7.08,58.59-21.05
	c20.68-21.51,19.72-52.63,19.7-52.94l10.99-0.46c0.06,1.46,1.25,35.97-22.68,60.94C786.63,1033.92,764.22,1042.17,735.61,1042.17z"
	/>
</svg>
